<?xml version="1.0" encoding="utf-8"?>
<!-- Svg Vector Icons : http://www.onlinewebfonts.com/icon -->
<!DOCTYPE svg PUBLIC "-//W3C//DTD SVG 1.1//EN" "http://www.w3.org/Graphics/SVG/1.1/DTD/svg11.dtd">
<svg version="1.1" xmlns="http://www.w3.org/2000/svg" xmlns:xlink="http://www.w3.org/1999/xlink" x="0px" y="0px" viewBox="0 0 256 256" enable-background="new 0 0 256 256" xml:space="preserve">
<metadata> Svg Vector Icons : http://www.onlinewebfonts.com/icon </metadata>
<g><g><path fill="#fff" d="M239.9,33.5c0,0-6.9,3.3-11.8,5.1c-4.8,1.8-11.2,3.6-11.2,3.6s-25.4-32-62.3-13c-36.9,19-25,61.7-25,61.7S98,92.1,60.7,72.7C23.4,53.4,14.3,35.9,14.3,35.9s-5.8,10.4-3.3,29.8c2.5,19.3,20.3,44.2,20.3,44.2L10,101c0,0,1.1,12.3,9.4,24.9c8.3,12.6,37.7,28.6,37.7,28.6L29.2,155c0,0,2.5,5.9,12.7,16c10.1,10,38.4,19,38.4,19s-19.9,14.3-33.7,19.7s-35.5,6.7-35.5,6.7S43.4,237,92.9,232c49.6-5,83.7-28.8,110.1-68.5c26.4-39.6,23.9-91.1,23.9-91.1s2.9-3.4,9.9-10c7-6.6,9.2-9.8,9.2-9.8l-17.5,1.9L239.9,33.5z"/></g></g>
</svg>