<?xml version="1.0" encoding="utf-8"?>
<!-- Svg Vector Icons : http://www.onlinewebfonts.com/icon -->
<!DOCTYPE svg PUBLIC "-//W3C//DTD SVG 1.1//EN" "http://www.w3.org/Graphics/SVG/1.1/DTD/svg11.dtd">
<svg version="1.1" xmlns="http://www.w3.org/2000/svg" xmlns:xlink="http://www.w3.org/1999/xlink" x="0px" y="0px" viewBox="0 0 256 256" enable-background="new 0 0 256 256" xml:space="preserve">
<metadata> Svg Vector Icons : http://www.onlinewebfonts.com/icon </metadata>
<g><g><g><path fill="#fff" d="M236.2,169.4c-7-8.4-15.3-15.6-23.1-23.3c-7.1-6.9-7.5-10.9-1.8-18.8c6.2-8.7,12.9-17,19.1-25.6c5.8-8.1,11.8-16.1,14.9-25.8c2-6.1,0.2-8.9-6.1-9.9c-1.1-0.2-2.2-0.2-3.3-0.2l-37.4,0c-4.6-0.1-7.2,1.9-8.8,6c-2.2,5.5-4.5,11-7.1,16.4c-5.9,12.1-12.6,23.7-21.9,33.6c-2,2.2-4.3,4.9-7.8,3.8c-4.3-1.6-5.6-8.6-5.5-11l0-43.2c-0.8-6.2-2.2-8.9-8.3-10.1h-38.8c-5.2,0-7.8,2-10.5,5.2c-1.6,1.9-2.1,3.1,1.2,3.7c6.5,1.2,10.1,5.4,11.1,11.8c1.5,10.3,1.4,20.7,0.6,31.1c-0.3,3-0.8,6-2,8.9c-1.9,4.5-4.9,5.3-8.9,2.6c-3.6-2.5-6.1-6-8.6-9.5C73.7,102,66.3,87.8,60.2,72.9c-1.8-4.3-4.8-6.9-9.3-7c-11.2-0.2-22.4-0.2-33.7,0c-6.7,0.1-8.8,3.4-6,9.5C23.4,102.6,37,129,54.7,153.1c9.1,12.4,19.6,23.3,33.1,31c15.3,8.8,31.8,11.4,49.2,10.6c8.1-0.4,10.6-2.5,11-10.6c0.3-5.5,0.9-11.1,3.6-16c2.7-4.9,6.7-5.8,11.4-2.8c2.3,1.5,4.3,3.5,6.2,5.5c4.6,5,9,10.2,13.8,15c6,6.1,13,9.7,21.9,8.9h34.4c5.5-0.4,8.4-7.2,5.2-13.3C242.3,177,239.3,173.1,236.2,169.4z"/></g><g></g><g></g><g></g><g></g><g></g><g></g><g></g><g></g><g></g><g></g><g></g><g></g><g></g><g></g><g></g></g></g>
</svg>